<svg width="403" height="125" viewBox="0 0 403 125" fill="none" xmlns="http://www.w3.org/2000/svg">
<path d="M165.221 1C164.793 1 156.005 1 142.167 1.1169C136.896 1.16143 135.183 1.46759 128.732 1.58803C122.28 1.70846 111.142 1.70846 104.334 1.94226C95.3646 2.25024 91.4629 3.12539 87.9028 3.47608C84.0232 3.85825 75.931 6.41975 64.3778 8.89229C54.6238 10.9798 49.0536 13.2777 45.9284 14.2164C41.5572 15.5294 34.8069 19.8664 26.4925 24.9319C14.3028 32.3584 11.8368 39.7105 10.1038 43.0226C8.085 46.8809 5.7876 54.5457 5.22617 70.3693C4.77095 83.1993 9.87665 89.5439 12.6806 92.7355C15.2708 95.6839 19.5995 95.6933 23.6042 97.2272C27.2299 98.6159 31.0618 100.653 39.0549 103.479C45.8222 105.873 49.0276 105.378 56.1153 105.732C61.9129 106.022 72.1989 105.853 101.591 106.437C130.984 107.022 179.176 108.191 204.645 108.91C231.404 109.665 234.008 110.104 236.598 110.22C239.205 110.338 247.366 110.812 258.715 110.578C268.918 110.368 274.029 107.751 278.462 106.331C286.831 103.649 296.084 98.0738 301.182 94.6484C304.46 92.446 306.274 89.5722 309.192 86.2637C311.899 83.1935 314.063 78.9452 315.043 71.3045C317.611 51.2808 312.998 44.939 311.051 41.3966C308.527 36.8041 301.14 31.0318 290.463 23.3733C284.891 19.3763 278.287 16.4162 268.337 13.2104C258.387 10.0046 245.107 6.96527 228.199 5.04887C211.291 3.13248 191.158 2.4311 179.286 2.42047C164.403 2.40715 159.185 4.06765 154.226 4.88947C141.317 7.02889 132.795 9.72828 127.596 11.0319C119.612 13.0338 106.209 16.3312 97.4407 19.4024C93.3911 20.8207 86.6079 24.0818 80.721 27.284C69.8498 33.1975 64.1961 38.0669 62.038 40.0683C59.7707 42.1709 57.7055 44.443 53.6197 48.5486C45.4144 56.7936 38.8894 64.5067 35.6506 68.3927C29.9223 75.2655 28.7122 80.3338 26.5476 84.9353C25.083 88.0488 23.5198 90.9608 22.001 95.0911C20.6471 98.773 20.4822 103.699 21.2319 108.534C21.8482 112.51 28.6668 114.808 35.4689 118.109C41.0678 120.827 50.0596 122.374 64.5044 123.674C72.7165 124.413 82.8045 123.805 93.5593 122.75C104.314 121.694 115.452 119.824 121.832 118.86C129.475 117.706 133.606 117.429 143.608 116.604C150.812 116.009 162.392 116.012 169.1 115.775C177.314 115.484 180.565 115.063 186.481 114.595C190.695 114.262 197.324 113.192 213.06 112.711C228.796 112.229 253.428 112.229 266.653 111.995C283.385 111.699 290.658 108.233 296.85 106.331C303.745 104.213 307.559 102.551 310.814 101.017C316.266 98.4486 324.422 92.1794 328.556 88.2722C329.898 87.0042 330.081 83.9116 329.974 80.3728C329.931 78.9342 329.653 78.2368 325.58 70.2772C321.507 62.3176 313.582 47.121 309.072 38.708C303.874 29.0148 299.394 24.8823 292.488 19.2252C289.109 16.4568 285.582 14.5033 278.462 12.0166C271.342 9.52991 260.633 6.72439 243.442 5.16223C226.252 3.60006 202.906 3.36627 187.13 3.83031C171.355 4.29436 163.858 5.46333 153.357 7.93587C142.855 10.4084 129.575 14.1491 116.523 17.5958C103.47 21.0425 91.0475 24.0818 84.1123 25.8813C72.5951 28.8697 66.1497 30.9822 59.4515 32.8738C54.146 34.3721 42.628 39.4554 35.6409 42.2043C32.4938 43.4424 29.1536 45.6191 26.2263 47.1635C20.8663 49.9916 14.2253 56.7136 11.4052 60.3799C8.59091 64.0386 5.13854 69.2251 2.10097 77.8259C-0.341574 84.7418 1.8738 90.4932 3.05508 92.6115C4.91515 95.9471 8.57204 97.3441 12.7649 99.6926C20.8806 104.238 30.6075 107.964 38.7044 110.323C50.3309 113.711 57.4394 114.113 64.91 114.588C75.8881 115.286 84.8944 116.706 94.322 117.539C104.315 118.421 112.414 119.314 115.974 119.43C117.823 119.491 119.749 119.781 144.302 120.018C168.856 120.256 215.978 120.49 240.895 120.493C267.098 120.497 269.706 120.022 272.939 119.788C284.201 118.974 293.721 118.137 297.181 116.487C303.469 113.486 309.948 108.701 312.547 106.451C317.504 102.163 322.721 94.5315 324.665 90.9891C326.532 87.5877 326.187 82.9693 325.541 79.5333C324.886 76.0488 322.955 71.4072 320.466 67.1387C316.394 60.1568 311.493 56.2744 308.027 52.849C304.665 49.5268 297.681 43.5504 283.573 33.6673C274.851 27.5564 261.97 20.9787 253.639 16.6641C245.308 12.3496 241.667 10.9468 235.936 9.40593C222.582 5.8154 213.05 4.54232 210.029 4.42543C203.943 4.18997 197.921 3.36627 183.022 2.30357C179.513 2.05328 177.592 1.48176 167.389 1.24088C157.186 1 138.766 1 125.85 1.81828C112.934 2.63655 106.08 4.27311 101.692 5.46687C95.5369 7.1415 89.7558 9.25361 82.7331 11.3755C78.0043 12.8042 74.3732 14.2199 66.9545 16.6819C52.2792 21.5519 42.1282 26.4976 39.3275 28.0279C32.1634 31.9424 27.6478 34.2837 24.3863 36.2992C21.8981 37.8369 18.3403 40.8865 15.9453 44.4395C12.9463 48.8884 13.3426 55.2967 12.6968 59.4306C11.3683 67.9345 12.4729 77.9676 13.8781 82.8099C14.8108 86.0243 15.7181 88.8354 18.415 93.32C20.3971 96.6162 24.1429 98.2863 27.0701 100.178C28.6863 101.12 30.2115 101.836 31.5064 102.424C32.1587 102.778 32.8013 103.246 34.1124 103.727" stroke="black" stroke-linecap="round"/>
<path d="M81.8438 79.4688C81.8021 79.3438 81.7812 79.1458 81.7812 78.875C81.7812 78.6042 81.8021 78.4375 81.8438 78.375C81.8646 78.3542 81.9167 78.3229 82 78.2812C82.1042 78.2188 82.2083 78.1562 82.3125 78.0938C82.4375 78.0312 82.5521 77.9792 82.6562 77.9375C82.7812 77.875 82.875 77.8333 82.9375 77.8125C83.8542 77.5625 84.7604 77.2917 85.6562 77C86.5729 76.7083 87.4688 76.375 88.3438 76C89.2188 75.625 90.0625 75.1979 90.875 74.7188C91.6875 74.2188 92.4688 73.6354 93.2188 72.9688C95.0104 71.3438 96.2917 69.9479 97.0625 68.7812C97.8542 67.5938 98.2708 66.5938 98.3125 65.7812C98.3542 64.9688 98.0938 64.3229 97.5312 63.8438C96.9896 63.3438 96.2917 62.9792 95.4375 62.75C94.6042 62.5 93.6771 62.3646 92.6562 62.3438C91.6562 62.3229 90.7188 62.375 89.8438 62.5C88.9896 62.625 88.2604 62.8021 87.6562 63.0312C87.0729 63.2604 86.7708 63.5 86.75 63.75L85.6562 74.5938C85.6354 74.7812 85.5312 74.9271 85.3438 75.0312C85.1771 75.1146 84.9896 75.1562 84.7812 75.1562C84.5938 75.1562 84.4167 75.1146 84.25 75.0312C84.1042 74.9271 84.0312 74.7812 84.0312 74.5938V65.875H81.8438C81.8229 65.8333 81.8125 65.75 81.8125 65.625C81.8125 65.4792 81.8229 65.3854 81.8438 65.3438C81.9271 65.2396 82.0625 65.0625 82.25 64.8125C82.4583 64.5417 82.6771 64.2604 82.9062 63.9688C83.1354 63.6771 83.3542 63.4062 83.5625 63.1562C83.7708 62.9062 83.9271 62.7396 84.0312 62.6562C84.0521 62.3854 84.0833 61.9167 84.125 61.25C84.1875 60.5833 84.2396 59.875 84.2812 59.125C84.3438 58.375 84.3958 57.6667 84.4375 57C84.5 56.3125 84.5417 55.8438 84.5625 55.5938C84.6042 55.0312 84.5417 54.6354 84.375 54.4062C84.2292 54.1562 84.0208 54.0312 83.75 54.0312C83.4792 54.0104 83.1771 54.0833 82.8438 54.25C82.5104 54.3958 82.1771 54.5833 81.8438 54.8125C81.5104 55.0417 81.1979 55.2812 80.9062 55.5312C80.6146 55.7812 80.3854 55.9792 80.2188 56.125C80.0521 56.2917 79.7604 56.5833 79.3438 57C78.9271 57.3958 78.4896 57.8333 78.0312 58.3125C77.5729 58.7708 77.1354 59.2083 76.7188 59.625C76.3021 60.0208 76.0208 60.3021 75.875 60.4688H74.25C74.0625 59.8854 74.1771 59.2708 74.5938 58.625C75.0312 57.9583 75.6771 57.2812 76.5312 56.5938C77.3854 55.9062 78.3958 55.2188 79.5625 54.5312C80.75 53.8438 82 53.1979 83.3125 52.5938C84.625 51.9688 85.9375 51.3958 87.25 50.875C88.5833 50.3542 89.8229 49.9167 90.9688 49.5625C92.1354 49.1875 93.1562 48.9062 94.0312 48.7188C94.9062 48.5312 95.5417 48.4688 95.9375 48.5312C96.3125 48.6146 96.5521 48.8229 96.6562 49.1562C96.7604 49.4896 96.7812 49.8646 96.7188 50.2812C96.6562 50.6771 96.5417 51.0729 96.375 51.4688C96.2292 51.8646 96.0833 52.1562 95.9375 52.3438C95.2917 53.2604 94.6979 54.0938 94.1562 54.8438C93.6146 55.5729 93.0521 56.2708 92.4688 56.9375C91.9062 57.5833 91.2917 58.2396 90.625 58.9062C89.9792 59.5521 89.2292 60.2604 88.375 61.0312C89.0833 61.1562 89.7604 61.1771 90.4062 61.0938C91.0729 61.0104 91.7188 60.9271 92.3438 60.8438C92.9896 60.7396 93.6458 60.6875 94.3125 60.6875C95 60.6667 95.7292 60.7812 96.5 61.0312C96.9583 61.1771 97.3646 61.3333 97.7188 61.5C98.0729 61.6667 98.375 61.8646 98.625 62.0938C98.8958 62.3229 99.1146 62.6146 99.2812 62.9688C99.4688 63.3021 99.625 63.7292 99.75 64.25C100.021 65.5 99.9167 66.7188 99.4375 67.9062C98.9583 69.0938 98.2292 70.2188 97.25 71.2812C96.2917 72.3438 95.1667 73.3438 93.875 74.2812C92.5833 75.1979 91.2708 76.0312 89.9375 76.7812C88.6042 77.5312 87.3125 78.1771 86.0625 78.7188C84.8333 79.2604 83.7917 79.6875 82.9375 80C82.7083 80.1042 82.4896 80.0938 82.2812 79.9688C82.0729 79.8229 81.9271 79.6562 81.8438 79.4688ZM86.75 60.4688C86.8958 60.3438 87.1042 60.1458 87.375 59.875C87.6667 59.5833 87.9896 59.2604 88.3438 58.9062C88.7188 58.5521 89.1042 58.1875 89.5 57.8125C89.8958 57.4167 90.2604 57.0417 90.5938 56.6875C90.9479 56.3125 91.2604 55.9792 91.5312 55.6875C91.8229 55.3958 92.0312 55.1771 92.1562 55.0312C92.3646 54.8229 92.6146 54.5208 92.9062 54.125C93.2188 53.7083 93.5208 53.3021 93.8125 52.9062C94.1042 52.4896 94.3542 52.125 94.5625 51.8125C94.7708 51.5 94.875 51.3125 94.875 51.25V49.625C94.25 49.5208 93.5104 49.5729 92.6562 49.7812C91.8229 49.9896 90.9896 50.2604 90.1562 50.5938C89.3229 50.9062 88.5417 51.2396 87.8125 51.5938C87.1042 51.9271 86.5625 52.1771 86.1875 52.3438L86.75 53.4062V60.4688ZM102.188 79.4688C101.771 78.5938 101.542 77.7083 101.5 76.8125C101.479 75.9167 101.531 75 101.656 74.0625C101.677 73.7708 101.729 73.3333 101.812 72.75C101.896 72.1667 101.99 71.5208 102.094 70.8125C102.198 70.1042 102.312 69.3542 102.438 68.5625C102.562 67.7708 102.677 67.0208 102.781 66.3125C102.885 65.6042 102.979 64.9792 103.062 64.4375C103.167 63.875 103.24 63.4583 103.281 63.1875C103.448 62.3125 103.625 61.5729 103.812 60.9688C104.021 60.3438 104.292 59.8646 104.625 59.5312C104.979 59.1979 105.427 59.0208 105.969 59C106.531 58.9792 107.25 59.1146 108.125 59.4062C108.229 59.4271 108.344 59.5104 108.469 59.6562C108.594 59.7812 108.667 59.875 108.688 59.9375C108.729 60.2083 108.802 60.625 108.906 61.1875C109.031 61.75 109.167 62.3958 109.312 63.125C109.458 63.8333 109.604 64.5833 109.75 65.375C109.917 66.1458 110.073 66.8958 110.219 67.625C110.365 68.3333 110.49 68.9688 110.594 69.5312C110.719 70.0938 110.812 70.5104 110.875 70.7812C111.188 72.2604 111.573 73.2917 112.031 73.875C112.49 74.4375 112.979 74.7292 113.5 74.75C114.021 74.7708 114.552 74.6042 115.094 74.25C115.656 73.875 116.208 73.4896 116.75 73.0938C117.292 72.6771 117.802 72.3229 118.281 72.0312C118.76 71.7396 119.177 71.6875 119.531 71.875C119.531 72.2708 119.438 72.6562 119.25 73.0312C119.062 73.4062 118.833 73.7604 118.562 74.0938C118.312 74.4062 118.031 74.6979 117.719 74.9688C117.406 75.2396 117.115 75.4688 116.844 75.6562C115.677 76.4271 114.698 76.8333 113.906 76.875C113.135 76.9167 112.479 76.7396 111.938 76.3438C111.396 75.9479 110.958 75.4062 110.625 74.7188C110.292 74.0312 109.99 73.3333 109.719 72.625C109.469 71.9167 109.219 71.2917 108.969 70.75C108.74 70.1875 108.458 69.8333 108.125 69.6875C108.062 69.9583 107.927 70.4271 107.719 71.0938C107.531 71.7604 107.323 72.4688 107.094 73.2188C106.865 73.9688 106.646 74.6771 106.438 75.3438C106.229 76.0104 106.083 76.4792 106 76.75C105.958 76.8542 105.865 77.0521 105.719 77.3438C105.594 77.6354 105.427 77.9583 105.219 78.3125C105.01 78.6458 104.771 78.9792 104.5 79.3125C104.25 79.625 103.99 79.8646 103.719 80.0312C103.448 80.2188 103.177 80.2812 102.906 80.2188C102.635 80.1562 102.396 79.9062 102.188 79.4688ZM103.812 70.25C103.771 70.5 103.74 70.9583 103.719 71.625C103.719 72.2917 103.719 73 103.719 73.75C103.719 74.5 103.719 75.2083 103.719 75.875C103.74 76.5417 103.771 77.0104 103.812 77.2812C104.542 76.1771 105.198 74.8958 105.781 73.4375C106.365 71.9583 106.802 70.4375 107.094 68.875C107.406 67.2917 107.531 65.7292 107.469 64.1875C107.406 62.625 107.094 61.2083 106.531 59.9375C106.177 60.5833 105.844 61.3958 105.531 62.375C105.219 63.3542 104.948 64.3542 104.719 65.375C104.49 66.375 104.292 67.3229 104.125 68.2188C103.979 69.0938 103.875 69.7708 103.812 70.25ZM119.406 78.9062C118.635 78.3229 118.073 77.625 117.719 76.8125C117.385 75.9792 117.198 75.0833 117.156 74.125C117.135 73.1458 117.24 72.1458 117.469 71.125C117.719 70.1042 118.042 69.1146 118.438 68.1562C118.833 67.1979 119.271 66.3125 119.75 65.5C120.25 64.6667 120.75 63.9688 121.25 63.4062C121.75 62.8229 122.219 62.4167 122.656 62.1875C123.094 61.9375 123.448 61.9167 123.719 62.125C123.76 62.3542 123.833 62.7812 123.938 63.4062C124.062 64.0104 124.177 64.6667 124.281 65.375C124.406 66.0625 124.51 66.7188 124.594 67.3438C124.698 67.9479 124.771 68.3646 124.812 68.5938C124.854 68.8646 124.865 69.1562 124.844 69.4688C124.823 69.7604 124.76 70.0312 124.656 70.2812C124.552 70.5104 124.375 70.6875 124.125 70.8125C123.896 70.9167 123.583 70.9062 123.188 70.7812C123.167 70.6354 123.104 70.3854 123 70.0312C122.917 69.6771 122.812 69.3021 122.688 68.9062C122.583 68.4896 122.469 68.1042 122.344 67.75C122.24 67.375 122.167 67.1146 122.125 66.9688L121.594 66.4375C120.948 66.875 120.406 67.5 119.969 68.3125C119.552 69.125 119.25 70.0104 119.062 70.9688C118.875 71.9062 118.823 72.8542 118.906 73.8125C119.01 74.75 119.25 75.5833 119.625 76.3125C120.021 77.0208 120.562 77.5625 121.25 77.9375C121.958 78.2917 122.833 78.3438 123.875 78.0938C124.938 77.8438 126.177 77.2396 127.594 76.2812C129.01 75.3021 130.625 73.8333 132.438 71.875V72.9688C132.438 73.0312 132.312 73.2188 132.062 73.5312C131.812 73.8438 131.51 74.2083 131.156 74.625C130.802 75.0208 130.438 75.4167 130.062 75.8125C129.708 76.2083 129.406 76.5208 129.156 76.75C128.469 77.3958 127.729 77.9896 126.938 78.5312C126.167 79.0729 125.365 79.4792 124.531 79.75C123.698 80.0208 122.844 80.1042 121.969 80C121.115 79.9167 120.26 79.5521 119.406 78.9062ZM135.75 77.8125C135.771 77.4792 135.844 77 135.969 76.375C136.115 75.7292 136.24 75.0521 136.344 74.3438C136.469 73.6146 136.542 72.8958 136.562 72.1875C136.604 71.4792 136.542 70.8854 136.375 70.4062C136.208 69.9062 135.906 69.5729 135.469 69.4062C135.052 69.2396 134.438 69.3333 133.625 69.6875C133.167 69.5625 132.906 69.3854 132.844 69.1562C132.781 68.9271 132.844 68.6667 133.031 68.375C133.219 68.0833 133.479 67.7708 133.812 67.4375C134.167 67.0833 134.521 66.7292 134.875 66.375C135.229 66 135.542 65.6354 135.812 65.2812C136.104 64.9271 136.271 64.5833 136.312 64.25C136.292 64.0833 136.25 63.7188 136.188 63.1562C136.146 62.5938 136.083 61.9479 136 61.2188C135.917 60.4688 135.833 59.6771 135.75 58.8438C135.688 58.0104 135.615 57.2188 135.531 56.4688C135.448 55.7188 135.375 55.0729 135.312 54.5312C135.271 53.9688 135.24 53.5938 135.219 53.4062C135.198 53.1354 135.198 52.8854 135.219 52.6562C135.26 52.4062 135.344 52.1979 135.469 52.0312C135.594 51.8646 135.76 51.7604 135.969 51.7188C136.198 51.6562 136.49 51.6875 136.844 51.8125C136.948 52.6042 137.052 53.5 137.156 54.5C137.26 55.5 137.375 56.5312 137.5 57.5938C137.625 58.6562 137.76 59.7188 137.906 60.7812C138.073 61.8438 138.26 62.8333 138.469 63.75C138.677 63.5833 138.927 63.3021 139.219 62.9062C139.51 62.4896 139.823 62.0417 140.156 61.5625C140.49 61.0625 140.833 60.5729 141.188 60.0938C141.562 59.5938 141.917 59.1979 142.25 58.9062C142.583 58.5938 142.896 58.4167 143.188 58.375C143.479 58.3125 143.719 58.4688 143.906 58.8438C143.927 58.8854 143.938 58.9792 143.938 59.125C143.938 59.25 143.927 59.3438 143.906 59.4062C143.635 60.2396 143.198 61.0104 142.594 61.7188C142.01 62.4271 141.406 63.1146 140.781 63.7812C140.177 64.4479 139.646 65.1354 139.188 65.8438C138.729 66.5312 138.49 67.2708 138.469 68.0625C138.656 68.2292 138.927 68.5 139.281 68.875L142 71.5938C142.521 72.0938 143.01 72.5833 143.469 73.0625C143.927 73.5208 144.333 73.9375 144.688 74.3125L145.5 75.0938C145.625 75.2188 145.823 75.4271 146.094 75.7188C146.365 75.9896 146.604 76.2917 146.812 76.625C147.021 76.9583 147.135 77.2812 147.156 77.5938C147.177 77.9062 146.99 78.1667 146.594 78.375C146.552 78.3958 146.458 78.4062 146.312 78.4062C146.188 78.4062 146.104 78.3958 146.062 78.375C145 77.0417 143.823 75.6979 142.531 74.3438C141.26 72.9688 139.906 71.7812 138.469 70.7812C138.448 70.9688 138.417 71.2604 138.375 71.6562C138.333 72.0521 138.271 72.5 138.188 73C138.125 73.5 138.052 74.0312 137.969 74.5938C137.906 75.1354 137.833 75.6562 137.75 76.1562C137.667 76.6562 137.594 77.1042 137.531 77.5C137.469 77.8958 137.417 78.1875 137.375 78.375C137.354 78.4792 137.292 78.6458 137.188 78.875C137.104 79.0833 136.99 79.2917 136.844 79.5C136.698 79.7083 136.531 79.875 136.344 80C136.156 80.1042 135.958 80.1042 135.75 80C135.75 79.9167 135.74 79.7812 135.719 79.5938C135.719 79.3854 135.719 79.1667 135.719 78.9375C135.719 78.6875 135.719 78.4583 135.719 78.25C135.74 78.0417 135.75 77.8958 135.75 77.8125ZM172.906 77.8125C172.448 77.0417 172.094 76.1771 171.844 75.2188C171.594 74.2396 171.417 73.2396 171.312 72.2188C171.208 71.1979 171.156 70.1875 171.156 69.1875C171.177 68.1875 171.208 67.2708 171.25 66.4375C170.958 66.3542 170.625 66.375 170.25 66.5C169.875 66.625 169.479 66.7917 169.062 67C168.646 67.1875 168.219 67.3958 167.781 67.625C167.344 67.8542 166.938 68.0208 166.562 68.125C166.188 68.2292 165.844 68.25 165.531 68.1875C165.219 68.125 164.969 67.9062 164.781 67.5312C164.594 67.1771 164.604 66.8958 164.812 66.6875C165.042 66.4792 165.365 66.3229 165.781 66.2188C166.219 66.0938 166.719 66.0104 167.281 65.9688C167.844 65.9062 168.375 65.8333 168.875 65.75C169.375 65.6667 169.802 65.5625 170.156 65.4375C170.51 65.2917 170.698 65.0833 170.719 64.8125L171.812 52.9062C171.833 52.7188 171.927 52.5729 172.094 52.4688C172.281 52.3646 172.469 52.3125 172.656 52.3125C172.865 52.3125 173.042 52.3646 173.188 52.4688C173.354 52.5521 173.438 52.6979 173.438 52.9062V63.1875C173.729 63.25 174.01 63.25 174.281 63.1875C174.552 63.1042 174.823 63.0104 175.094 62.9062C175.365 62.8021 175.625 62.7188 175.875 62.6562C176.146 62.5938 176.427 62.5938 176.719 62.6562C176.844 62.8854 176.823 63.1042 176.656 63.3125C176.49 63.5 176.323 63.6458 176.156 63.75L175.594 64.0938C175.344 64.2396 175.073 64.4062 174.781 64.5938C174.51 64.7604 174.24 64.9167 173.969 65.0625C173.719 65.2083 173.542 65.3021 173.438 65.3438C173.417 65.6354 173.396 66.1458 173.375 66.875C173.375 67.5833 173.375 68.3438 173.375 69.1562C173.375 69.9688 173.375 70.7396 173.375 71.4688C173.396 72.1771 173.417 72.6771 173.438 72.9688C173.521 73.9479 173.708 74.8438 174 75.6562C174.292 76.4688 174.688 77.1042 175.188 77.5625C175.688 78.0208 176.281 78.25 176.969 78.25C177.677 78.25 178.5 77.9271 179.438 77.2812C179.583 77.7604 179.573 78.1875 179.406 78.5625C179.24 78.9375 178.969 79.2396 178.594 79.4688C178.219 79.6771 177.771 79.8125 177.25 79.875C176.729 79.9375 176.198 79.9062 175.656 79.7812C175.135 79.6562 174.625 79.4375 174.125 79.125C173.625 78.7917 173.219 78.3542 172.906 77.8125ZM181.031 78.375C180.51 77.6042 180.198 76.75 180.094 75.8125C179.99 74.8542 179.99 73.8542 180.094 72.8125C180.198 71.7708 180.365 70.7188 180.594 69.6562C180.823 68.5938 181.021 67.5729 181.188 66.5938C181.354 65.5938 181.448 64.6667 181.469 63.8125C181.49 62.9375 181.344 62.1875 181.031 61.5625C180.865 61.2292 180.635 61.0729 180.344 61.0938C180.073 61.0938 179.771 61.1354 179.438 61.2188C179.125 61.2812 178.802 61.3021 178.469 61.2812C178.156 61.2604 177.875 61.0625 177.625 60.6875C177.646 60.6042 177.729 60.5 177.875 60.375C178 60.2292 178.094 60.1458 178.156 60.125C180.031 59.8542 181.594 60.0521 182.844 60.7188C184.115 61.3646 185.125 62.2917 185.875 63.5C186.625 64.6875 187.135 66.0521 187.406 67.5938C187.698 69.1354 187.802 70.6667 187.719 72.1875C187.635 73.7083 187.396 75.125 187 76.4375C186.604 77.7292 186.104 78.7292 185.5 79.4375C184.896 80.1458 184.208 80.4583 183.438 80.375C182.667 80.2917 181.865 79.625 181.031 78.375ZM182.656 77.2812C182.677 77.3438 182.74 77.4271 182.844 77.5312C182.948 77.6354 183.052 77.75 183.156 77.875C183.281 78 183.396 78.1146 183.5 78.2188C183.604 78.3021 183.677 78.3542 183.719 78.375C184.49 77.9375 185.062 77.3438 185.438 76.5938C185.812 75.8438 186.031 75.0104 186.094 74.0938C186.177 73.1771 186.135 72.2188 185.969 71.2188C185.823 70.1979 185.604 69.2188 185.312 68.2812C185.021 67.3438 184.677 66.4792 184.281 65.6875C183.906 64.8958 183.542 64.25 183.188 63.75C183.167 64.0208 183.125 64.4375 183.062 65C183 65.5625 182.938 66.1979 182.875 66.9062C182.812 67.6146 182.74 68.3646 182.656 69.1562C182.573 69.9479 182.49 70.7083 182.406 71.4375C182.344 72.1458 182.281 72.7812 182.219 73.3438C182.156 73.9062 182.115 74.3229 182.094 74.5938C182.073 74.8021 182.073 75.0417 182.094 75.3125C182.135 75.5625 182.188 75.8125 182.25 76.0625C182.312 76.3125 182.375 76.5521 182.438 76.7812C182.521 76.9896 182.594 77.1562 182.656 77.2812ZM213.562 77.8125C213.104 77.0417 212.75 76.1771 212.5 75.2188C212.25 74.2396 212.073 73.2396 211.969 72.2188C211.865 71.1979 211.812 70.1875 211.812 69.1875C211.833 68.1875 211.865 67.2708 211.906 66.4375C211.615 66.3542 211.281 66.375 210.906 66.5C210.531 66.625 210.135 66.7917 209.719 67C209.302 67.1875 208.875 67.3958 208.438 67.625C208 67.8542 207.594 68.0208 207.219 68.125C206.844 68.2292 206.5 68.25 206.188 68.1875C205.875 68.125 205.625 67.9062 205.438 67.5312C205.25 67.1771 205.26 66.8958 205.469 66.6875C205.698 66.4792 206.021 66.3229 206.438 66.2188C206.875 66.0938 207.375 66.0104 207.938 65.9688C208.5 65.9062 209.031 65.8333 209.531 65.75C210.031 65.6667 210.458 65.5625 210.812 65.4375C211.167 65.2917 211.354 65.0833 211.375 64.8125L212.469 52.9062C212.49 52.7188 212.583 52.5729 212.75 52.4688C212.938 52.3646 213.125 52.3125 213.312 52.3125C213.521 52.3125 213.698 52.3646 213.844 52.4688C214.01 52.5521 214.094 52.6979 214.094 52.9062V63.1875C214.385 63.25 214.667 63.25 214.938 63.1875C215.208 63.1042 215.479 63.0104 215.75 62.9062C216.021 62.8021 216.281 62.7188 216.531 62.6562C216.802 62.5938 217.083 62.5938 217.375 62.6562C217.5 62.8854 217.479 63.1042 217.312 63.3125C217.146 63.5 216.979 63.6458 216.812 63.75L216.25 64.0938C216 64.2396 215.729 64.4062 215.438 64.5938C215.167 64.7604 214.896 64.9167 214.625 65.0625C214.375 65.2083 214.198 65.3021 214.094 65.3438C214.073 65.6354 214.052 66.1458 214.031 66.875C214.031 67.5833 214.031 68.3438 214.031 69.1562C214.031 69.9688 214.031 70.7396 214.031 71.4688C214.052 72.1771 214.073 72.6771 214.094 72.9688C214.177 73.9479 214.365 74.8438 214.656 75.6562C214.948 76.4688 215.344 77.1042 215.844 77.5625C216.344 78.0208 216.938 78.25 217.625 78.25C218.333 78.25 219.156 77.9271 220.094 77.2812C220.24 77.7604 220.229 78.1875 220.062 78.5625C219.896 78.9375 219.625 79.2396 219.25 79.4688C218.875 79.6771 218.427 79.8125 217.906 79.875C217.385 79.9375 216.854 79.9062 216.312 79.7812C215.792 79.6562 215.281 79.4375 214.781 79.125C214.281 78.7917 213.875 78.3542 213.562 77.8125ZM221.688 78.375C221.167 77.6042 220.854 76.75 220.75 75.8125C220.646 74.8542 220.646 73.8542 220.75 72.8125C220.854 71.7708 221.021 70.7188 221.25 69.6562C221.479 68.5938 221.677 67.5729 221.844 66.5938C222.01 65.5938 222.104 64.6667 222.125 63.8125C222.146 62.9375 222 62.1875 221.688 61.5625C221.521 61.2292 221.292 61.0729 221 61.0938C220.729 61.0938 220.427 61.1354 220.094 61.2188C219.781 61.2812 219.458 61.3021 219.125 61.2812C218.812 61.2604 218.531 61.0625 218.281 60.6875C218.302 60.6042 218.385 60.5 218.531 60.375C218.656 60.2292 218.75 60.1458 218.812 60.125C220.688 59.8542 222.25 60.0521 223.5 60.7188C224.771 61.3646 225.781 62.2917 226.531 63.5C227.281 64.6875 227.792 66.0521 228.062 67.5938C228.354 69.1354 228.458 70.6667 228.375 72.1875C228.292 73.7083 228.052 75.125 227.656 76.4375C227.26 77.7292 226.76 78.7292 226.156 79.4375C225.552 80.1458 224.865 80.4583 224.094 80.375C223.323 80.2917 222.521 79.625 221.688 78.375ZM223.312 77.2812C223.333 77.3438 223.396 77.4271 223.5 77.5312C223.604 77.6354 223.708 77.75 223.812 77.875C223.938 78 224.052 78.1146 224.156 78.2188C224.26 78.3021 224.333 78.3542 224.375 78.375C225.146 77.9375 225.719 77.3438 226.094 76.5938C226.469 75.8438 226.688 75.0104 226.75 74.0938C226.833 73.1771 226.792 72.2188 226.625 71.2188C226.479 70.1979 226.26 69.2188 225.969 68.2812C225.677 67.3438 225.333 66.4792 224.938 65.6875C224.562 64.8958 224.198 64.25 223.844 63.75C223.823 64.0208 223.781 64.4375 223.719 65C223.656 65.5625 223.594 66.1979 223.531 66.9062C223.469 67.6146 223.396 68.3646 223.312 69.1562C223.229 69.9479 223.146 70.7083 223.062 71.4375C223 72.1458 222.938 72.7812 222.875 73.3438C222.812 73.9062 222.771 74.3229 222.75 74.5938C222.729 74.8021 222.729 75.0417 222.75 75.3125C222.792 75.5625 222.844 75.8125 222.906 76.0625C222.969 76.3125 223.031 76.5521 223.094 76.7812C223.177 76.9896 223.25 77.1562 223.312 77.2812ZM231.719 95.7188C231.302 95.4479 230.958 95.0208 230.688 94.4375C230.417 93.875 230.198 93.2708 230.031 92.625C229.865 91.9792 229.74 91.3438 229.656 90.7188C229.594 90.0938 229.552 89.5938 229.531 89.2188C229.448 87.4271 229.417 85.5312 229.438 83.5312C229.479 81.5521 229.667 79.5833 230 77.625C230.333 75.6458 230.844 73.75 231.531 71.9375C232.24 70.1042 233.208 68.4479 234.438 66.9688C235.083 66.1979 235.708 65.5 236.312 64.875C236.938 64.2292 237.583 63.6562 238.25 63.1562C238.938 62.6562 239.667 62.2292 240.438 61.875C241.229 61.5 242.115 61.2083 243.094 61C243.99 60.8125 244.667 60.9062 245.125 61.2812C245.604 61.6562 245.917 62.2188 246.062 62.9688C246.208 63.6979 246.208 64.5729 246.062 65.5938C245.917 66.5938 245.667 67.6354 245.312 68.7188C244.958 69.7812 244.521 70.8229 244 71.8438C243.5 72.8646 242.958 73.7604 242.375 74.5312C241.792 75.3021 241.188 75.9062 240.562 76.3438C239.938 76.7604 239.333 76.8958 238.75 76.75C238.667 76.6042 238.76 76.2604 239.031 75.7188C239.302 75.1771 239.656 74.5104 240.094 73.7188C240.552 72.9271 241.042 72.0521 241.562 71.0938C242.104 70.1146 242.583 69.125 243 68.125C243.438 67.125 243.771 66.1458 244 65.1875C244.25 64.2292 244.312 63.375 244.188 62.625C244.125 62.2917 243.938 62.0938 243.625 62.0312C243.312 61.9688 242.969 61.9792 242.594 62.0625C242.24 62.1458 241.896 62.25 241.562 62.375C241.229 62.5 241.021 62.5833 240.938 62.625C239.354 63.3125 237.979 64.3125 236.812 65.625C235.667 66.9167 234.698 68.4062 233.906 70.0938C233.115 71.7604 232.49 73.5417 232.031 75.4375C231.594 77.3333 231.281 79.1979 231.094 81.0312C230.906 82.8854 230.833 84.6458 230.875 86.3125C230.917 88 231.052 89.4479 231.281 90.6562C231.51 91.8854 231.802 92.8125 232.156 93.4375C232.51 94.0833 232.906 94.3021 233.344 94.0938C233.385 94.0729 233.469 93.9896 233.594 93.8438C233.74 93.6979 233.833 93.5938 233.875 93.5312C234.167 92.6562 234.406 91.6979 234.594 90.6562C234.781 89.6146 234.917 88.5312 235 87.4062C235.104 86.2812 235.167 85.1458 235.188 84C235.208 82.8542 235.208 81.7396 235.188 80.6562C235.167 79.5938 235.125 78.5833 235.062 77.625C235.021 76.6667 234.979 75.8229 234.938 75.0938C234.875 74.9479 234.823 74.6771 234.781 74.2812C234.76 73.8854 234.74 73.4583 234.719 73C234.719 72.5417 234.729 72.0938 234.75 71.6562C234.792 71.1979 234.865 70.8542 234.969 70.625C235.073 70.3958 235.208 70.3125 235.375 70.375C235.542 70.4375 235.76 70.7396 236.031 71.2812C236.073 71.5521 236.115 72.0208 236.156 72.6875C236.219 73.3542 236.281 74.0729 236.344 74.8438C236.406 75.5938 236.458 76.3021 236.5 76.9688C236.542 77.6354 236.562 78.1042 236.562 78.375C236.583 78.6667 236.594 79.0729 236.594 79.5938C236.615 80.0938 236.625 80.6354 236.625 81.2188V84.8125C236.625 85.3542 236.615 85.8229 236.594 86.2188C236.594 86.6354 236.583 86.9062 236.562 87.0312C236.562 87.2188 236.51 87.5833 236.406 88.125C236.323 88.6875 236.229 89.2812 236.125 89.9062C236.021 90.5521 235.906 91.1667 235.781 91.75C235.656 92.3333 235.562 92.75 235.5 93C235.375 93.4375 235.198 93.8854 234.969 94.3438C234.74 94.8021 234.458 95.1875 234.125 95.5C233.812 95.8125 233.448 96 233.031 96.0625C232.635 96.1458 232.198 96.0312 231.719 95.7188Z" fill="black"/>
</svg>
