<svg width="280" height="64" viewBox="0 0 280 64" fill="none" xmlns="http://www.w3.org/2000/svg">
<rect x="0.5" y="0.5" width="279" height="63" fill="white" stroke="black"/>
<path d="M97.174 40.8182H99.3267V47.4304C99.3267 48.1728 99.1494 48.8224 98.7947 49.3793C98.4434 49.9361 97.9512 50.3703 97.3182 50.6818C96.6851 50.9901 95.9477 51.1442 95.1058 51.1442C94.2607 51.1442 93.5215 50.9901 92.8885 50.6818C92.2554 50.3703 91.7633 49.9361 91.4119 49.3793C91.0606 48.8224 90.8849 48.1728 90.8849 47.4304V40.8182H93.0376V47.2464C93.0376 47.6342 93.1222 47.9789 93.2912 48.2805C93.4635 48.5821 93.7055 48.8191 94.017 48.9915C94.3286 49.1638 94.6915 49.25 95.1058 49.25C95.5234 49.25 95.8864 49.1638 96.1946 48.9915C96.5062 48.8191 96.7464 48.5821 96.9155 48.2805C97.0878 47.9789 97.174 47.6342 97.174 47.2464V40.8182ZM101.058 53.8636V43.3636H103.146V44.6463H103.241C103.333 44.4408 103.468 44.232 103.643 44.0199C103.822 43.8045 104.054 43.6255 104.339 43.483C104.628 43.3371 104.986 43.2642 105.413 43.2642C105.97 43.2642 106.484 43.41 106.954 43.7017C107.425 43.9901 107.801 44.4259 108.083 45.0092C108.365 45.5893 108.506 46.3168 108.506 47.1918C108.506 48.0436 108.368 48.7628 108.093 49.3494C107.821 49.9328 107.45 50.3752 106.979 50.6768C106.512 50.9751 105.988 51.1243 105.408 51.1243C104.997 51.1243 104.648 51.0563 104.359 50.9205C104.074 50.7846 103.84 50.6139 103.658 50.4084C103.476 50.1996 103.337 49.9891 103.241 49.777H103.176V53.8636H101.058ZM103.131 47.1818C103.131 47.6359 103.194 48.032 103.32 48.37C103.446 48.7081 103.628 48.9716 103.867 49.1605C104.106 49.3461 104.396 49.4389 104.737 49.4389C105.082 49.4389 105.373 49.3445 105.612 49.1555C105.851 48.9633 106.031 48.6982 106.154 48.3601C106.28 48.0187 106.343 47.6259 106.343 47.1818C106.343 46.741 106.282 46.3532 106.159 46.0185C106.036 45.6837 105.856 45.4219 105.617 45.233C105.378 45.044 105.085 44.9496 104.737 44.9496C104.392 44.9496 104.101 45.0407 103.862 45.223C103.627 45.4053 103.446 45.6638 103.32 45.9986C103.194 46.3333 103.131 46.7277 103.131 47.1818ZM112.035 40.8182V51H109.917V40.8182H112.035ZM117.182 51.1491C116.41 51.1491 115.742 50.9851 115.179 50.657C114.618 50.3255 114.186 49.8648 113.881 49.2749C113.576 48.6816 113.424 47.9938 113.424 47.2116C113.424 46.4228 113.576 45.7334 113.881 45.1435C114.186 44.5502 114.618 44.0895 115.179 43.7614C115.742 43.4299 116.41 43.2642 117.182 43.2642C117.954 43.2642 118.621 43.4299 119.181 43.7614C119.744 44.0895 120.178 44.5502 120.483 45.1435C120.788 45.7334 120.941 46.4228 120.941 47.2116C120.941 47.9938 120.788 48.6816 120.483 49.2749C120.178 49.8648 119.744 50.3255 119.181 50.657C118.621 50.9851 117.954 51.1491 117.182 51.1491ZM117.192 49.5085C117.543 49.5085 117.837 49.4091 118.072 49.2102C118.307 49.008 118.485 48.733 118.604 48.3849C118.727 48.0369 118.788 47.6409 118.788 47.1967C118.788 46.7526 118.727 46.3565 118.604 46.0085C118.485 45.6605 118.307 45.3854 118.072 45.1832C117.837 44.9811 117.543 44.88 117.192 44.88C116.837 44.88 116.539 44.9811 116.297 45.1832C116.059 45.3854 115.878 45.6605 115.755 46.0085C115.636 46.3565 115.576 46.7526 115.576 47.1967C115.576 47.6409 115.636 48.0369 115.755 48.3849C115.878 48.733 116.059 49.008 116.297 49.2102C116.539 49.4091 116.837 49.5085 117.192 49.5085ZM124.495 51.1442C124.008 51.1442 123.574 51.0597 123.193 50.8906C122.812 50.7183 122.51 50.4647 122.288 50.13C122.069 49.7919 121.96 49.371 121.96 48.8672C121.96 48.4429 122.038 48.0866 122.194 47.7983C122.349 47.5099 122.561 47.2779 122.83 47.1023C123.098 46.9266 123.403 46.794 123.745 46.7045C124.089 46.6151 124.451 46.5521 124.828 46.5156C125.273 46.4692 125.631 46.4261 125.902 46.3864C126.174 46.3433 126.371 46.2803 126.494 46.1974C126.617 46.1146 126.678 45.992 126.678 45.8295V45.7997C126.678 45.4848 126.578 45.2412 126.38 45.0689C126.184 44.8965 125.906 44.8104 125.544 44.8104C125.163 44.8104 124.86 44.8949 124.635 45.0639C124.409 45.2296 124.26 45.4384 124.187 45.6903L122.228 45.5312C122.328 45.0672 122.523 44.6662 122.815 44.3281C123.107 43.9867 123.483 43.7249 123.944 43.5426C124.408 43.357 124.944 43.2642 125.554 43.2642C125.979 43.2642 126.385 43.3139 126.772 43.4134C127.163 43.5128 127.51 43.6669 127.811 43.8757C128.116 44.0845 128.357 44.353 128.532 44.6811C128.708 45.0059 128.796 45.3954 128.796 45.8494V51H126.787V49.9411H126.728C126.605 50.1797 126.441 50.3902 126.235 50.5724C126.03 50.7514 125.783 50.8923 125.495 50.995C125.206 51.0945 124.873 51.1442 124.495 51.1442ZM125.102 49.6825C125.413 49.6825 125.689 49.6212 125.927 49.4986C126.166 49.3726 126.353 49.2036 126.489 48.9915C126.625 48.7794 126.693 48.5391 126.693 48.2706V47.4602C126.627 47.5033 126.535 47.5431 126.419 47.5795C126.307 47.6127 126.179 47.6442 126.037 47.674C125.894 47.7005 125.752 47.7254 125.609 47.7486C125.467 47.7685 125.337 47.7867 125.221 47.8033C124.973 47.8397 124.756 47.8977 124.57 47.9773C124.384 48.0568 124.24 48.1645 124.137 48.3004C124.035 48.433 123.983 48.5987 123.983 48.7976C123.983 49.0859 124.088 49.3063 124.297 49.4588C124.509 49.608 124.777 49.6825 125.102 49.6825ZM133.253 51.1243C132.673 51.1243 132.147 50.9751 131.677 50.6768C131.21 50.3752 130.838 49.9328 130.563 49.3494C130.291 48.7628 130.156 48.0436 130.156 47.1918C130.156 46.3168 130.296 45.5893 130.578 45.0092C130.86 44.4259 131.234 43.9901 131.702 43.7017C132.172 43.41 132.688 43.2642 133.248 43.2642C133.675 43.2642 134.032 43.3371 134.317 43.483C134.605 43.6255 134.837 43.8045 135.013 44.0199C135.192 44.232 135.328 44.4408 135.42 44.6463H135.485V40.8182H137.598V51H135.51V49.777H135.42C135.321 49.9891 135.18 50.1996 134.998 50.4084C134.819 50.6139 134.585 50.7846 134.297 50.9205C134.012 51.0563 133.664 51.1243 133.253 51.1243ZM133.924 49.4389C134.265 49.4389 134.554 49.3461 134.789 49.1605C135.028 48.9716 135.21 48.7081 135.336 48.37C135.465 48.032 135.53 47.6359 135.53 47.1818C135.53 46.7277 135.467 46.3333 135.341 45.9986C135.215 45.6638 135.033 45.4053 134.794 45.223C134.555 45.0407 134.265 44.9496 133.924 44.9496C133.576 44.9496 133.283 45.044 133.044 45.233C132.805 45.4219 132.625 45.6837 132.502 46.0185C132.379 46.3532 132.318 46.741 132.318 47.1818C132.318 47.6259 132.379 48.0187 132.502 48.3601C132.628 48.6982 132.809 48.9633 133.044 49.1555C133.283 49.3445 133.576 49.4389 133.924 49.4389ZM144.757 51.1442C144.27 51.1442 143.836 51.0597 143.455 50.8906C143.073 50.7183 142.772 50.4647 142.55 50.13C142.331 49.7919 142.222 49.371 142.222 48.8672C142.222 48.4429 142.299 48.0866 142.455 47.7983C142.611 47.5099 142.823 47.2779 143.092 47.1023C143.36 46.9266 143.665 46.794 144.006 46.7045C144.351 46.6151 144.712 46.5521 145.09 46.5156C145.534 46.4692 145.892 46.4261 146.164 46.3864C146.436 46.3433 146.633 46.2803 146.756 46.1974C146.878 46.1146 146.94 45.992 146.94 45.8295V45.7997C146.94 45.4848 146.84 45.2412 146.641 45.0689C146.446 44.8965 146.167 44.8104 145.806 44.8104C145.425 44.8104 145.122 44.8949 144.896 45.0639C144.671 45.2296 144.522 45.4384 144.449 45.6903L142.49 45.5312C142.589 45.0672 142.785 44.6662 143.077 44.3281C143.368 43.9867 143.745 43.7249 144.205 43.5426C144.669 43.357 145.206 43.2642 145.816 43.2642C146.24 43.2642 146.646 43.3139 147.034 43.4134C147.425 43.5128 147.772 43.6669 148.073 43.8757C148.378 44.0845 148.618 44.353 148.794 44.6811C148.97 45.0059 149.058 45.3954 149.058 45.8494V51H147.049V49.9411H146.989C146.867 50.1797 146.703 50.3902 146.497 50.5724C146.292 50.7514 146.045 50.8923 145.756 50.995C145.468 51.0945 145.135 51.1442 144.757 51.1442ZM145.364 49.6825C145.675 49.6825 145.95 49.6212 146.189 49.4986C146.428 49.3726 146.615 49.2036 146.751 48.9915C146.887 48.7794 146.955 48.5391 146.955 48.2706V47.4602C146.888 47.5033 146.797 47.5431 146.681 47.5795C146.568 47.6127 146.441 47.6442 146.298 47.674C146.156 47.7005 146.013 47.7254 145.871 47.7486C145.728 47.7685 145.599 47.7867 145.483 47.8033C145.234 47.8397 145.017 47.8977 144.832 47.9773C144.646 48.0568 144.502 48.1645 144.399 48.3004C144.296 48.433 144.245 48.5987 144.245 48.7976C144.245 49.0859 144.349 49.3063 144.558 49.4588C144.77 49.608 145.039 49.6825 145.364 49.6825ZM153.941 53.8636V43.3636H156.029V44.6463H156.123C156.216 44.4408 156.35 44.232 156.526 44.0199C156.705 43.8045 156.937 43.6255 157.222 43.483C157.51 43.3371 157.868 43.2642 158.296 43.2642C158.853 43.2642 159.367 43.41 159.837 43.7017C160.308 43.9901 160.684 44.4259 160.966 45.0092C161.247 45.5893 161.388 46.3168 161.388 47.1918C161.388 48.0436 161.251 48.7628 160.976 49.3494C160.704 49.9328 160.333 50.3752 159.862 50.6768C159.395 50.9751 158.871 51.1243 158.291 51.1243C157.88 51.1243 157.53 51.0563 157.242 50.9205C156.957 50.7846 156.723 50.6139 156.541 50.4084C156.359 50.1996 156.22 49.9891 156.123 49.777H156.059V53.8636H153.941ZM156.014 47.1818C156.014 47.6359 156.077 48.032 156.203 48.37C156.329 48.7081 156.511 48.9716 156.75 49.1605C156.988 49.3461 157.278 49.4389 157.62 49.4389C157.965 49.4389 158.256 49.3445 158.495 49.1555C158.733 48.9633 158.914 48.6982 159.037 48.3601C159.163 48.0187 159.226 47.6259 159.226 47.1818C159.226 46.741 159.164 46.3532 159.042 46.0185C158.919 45.6837 158.738 45.4219 158.5 45.233C158.261 45.044 157.968 44.9496 157.62 44.9496C157.275 44.9496 156.983 45.0407 156.745 45.223C156.51 45.4053 156.329 45.6638 156.203 45.9986C156.077 46.3333 156.014 46.7277 156.014 47.1818ZM164.918 46.5852V51H162.8V40.8182H164.858V44.7109H164.948C165.12 44.2602 165.399 43.9072 165.783 43.652C166.168 43.3935 166.65 43.2642 167.23 43.2642C167.76 43.2642 168.223 43.3802 168.617 43.6122C169.015 43.8409 169.323 44.1707 169.542 44.6016C169.764 45.0291 169.873 45.5412 169.87 46.1378V51H167.752V46.5156C167.755 46.045 167.636 45.6787 167.394 45.4169C167.155 45.1551 166.821 45.0241 166.39 45.0241C166.101 45.0241 165.846 45.0855 165.624 45.2081C165.405 45.3307 165.233 45.5097 165.107 45.745C164.984 45.977 164.921 46.2571 164.918 46.5852ZM174.987 51.1491C174.215 51.1491 173.547 50.9851 172.983 50.657C172.423 50.3255 171.991 49.8648 171.686 49.2749C171.381 48.6816 171.228 47.9938 171.228 47.2116C171.228 46.4228 171.381 45.7334 171.686 45.1435C171.991 44.5502 172.423 44.0895 172.983 43.7614C173.547 43.4299 174.215 43.2642 174.987 43.2642C175.759 43.2642 176.425 43.4299 176.985 43.7614C177.549 44.0895 177.983 44.5502 178.288 45.1435C178.593 45.7334 178.745 46.4228 178.745 47.2116C178.745 47.9938 178.593 48.6816 178.288 49.2749C177.983 49.8648 177.549 50.3255 176.985 50.657C176.425 50.9851 175.759 51.1491 174.987 51.1491ZM174.997 49.5085C175.348 49.5085 175.641 49.4091 175.877 49.2102C176.112 49.008 176.289 48.733 176.409 48.3849C176.531 48.0369 176.593 47.6409 176.593 47.1967C176.593 46.7526 176.531 46.3565 176.409 46.0085C176.289 45.6605 176.112 45.3854 175.877 45.1832C175.641 44.9811 175.348 44.88 174.997 44.88C174.642 44.88 174.344 44.9811 174.102 45.1832C173.863 45.3854 173.683 45.6605 173.56 46.0085C173.441 46.3565 173.381 46.7526 173.381 47.1967C173.381 47.6409 173.441 48.0369 173.56 48.3849C173.683 48.733 173.863 49.008 174.102 49.2102C174.344 49.4091 174.642 49.5085 174.997 49.5085ZM184.184 43.3636V44.9545H179.586V43.3636H184.184ZM180.63 41.5341H182.748V48.6534C182.748 48.849 182.777 49.0014 182.837 49.1108C182.897 49.2169 182.98 49.2914 183.086 49.3345C183.195 49.3776 183.321 49.3991 183.463 49.3991C183.563 49.3991 183.662 49.3909 183.762 49.3743C183.861 49.3544 183.937 49.3395 183.99 49.3295L184.324 50.9055C184.217 50.9387 184.068 50.9768 183.876 51.0199C183.684 51.0663 183.45 51.0945 183.175 51.1044C182.665 51.1243 182.217 51.0563 181.833 50.9006C181.452 50.7448 181.155 50.5028 180.943 50.1747C180.731 49.8466 180.626 49.4323 180.63 48.9318V41.5341ZM188.932 51.1491C188.16 51.1491 187.492 50.9851 186.929 50.657C186.368 50.3255 185.936 49.8648 185.631 49.2749C185.326 48.6816 185.174 47.9938 185.174 47.2116C185.174 46.4228 185.326 45.7334 185.631 45.1435C185.936 44.5502 186.368 44.0895 186.929 43.7614C187.492 43.4299 188.16 43.2642 188.932 43.2642C189.704 43.2642 190.371 43.4299 190.931 43.7614C191.494 44.0895 191.928 44.5502 192.233 45.1435C192.538 45.7334 192.691 46.4228 192.691 47.2116C192.691 47.9938 192.538 48.6816 192.233 49.2749C191.928 49.8648 191.494 50.3255 190.931 50.657C190.371 50.9851 189.704 51.1491 188.932 51.1491ZM188.942 49.5085C189.293 49.5085 189.587 49.4091 189.822 49.2102C190.057 49.008 190.235 48.733 190.354 48.3849C190.477 48.0369 190.538 47.6409 190.538 47.1967C190.538 46.7526 190.477 46.3565 190.354 46.0085C190.235 45.6605 190.057 45.3854 189.822 45.1832C189.587 44.9811 189.293 44.88 188.942 44.88C188.587 44.88 188.289 44.9811 188.047 45.1832C187.809 45.3854 187.628 45.6605 187.505 46.0085C187.386 46.3565 187.326 46.7526 187.326 47.1967C187.326 47.6409 187.386 48.0369 187.505 48.3849C187.628 48.733 187.809 49.008 188.047 49.2102C188.289 49.4091 188.587 49.5085 188.942 49.5085Z" fill="#ADADAD"/>
<path d="M144.44 17.0929C144.414 17.064 144.38 17.0406 144.342 17.0245C144.303 17.0084 144.261 17 144.219 17C144.176 17 144.134 17.0084 144.095 17.0245C144.057 17.0406 144.023 17.064 143.997 17.0929L140.06 21.3827C140.027 21.4184 140.007 21.4612 140.002 21.5063C139.996 21.5514 140.005 21.5969 140.028 21.6376C140.052 21.6784 140.088 21.7127 140.132 21.7367C140.177 21.7606 140.229 21.7733 140.281 21.7732H142.879V29.1115C142.879 29.2447 143.006 29.3537 143.16 29.3537H145.27C145.425 29.3537 145.551 29.2447 145.551 29.1115V21.7762H148.156C148.392 21.7762 148.522 21.5431 148.378 21.3857L144.44 17.0929Z" fill="#ADADAD"/>
<path d="M154.276 15.2575C152.666 11.6005 148.563 9 143.757 9C138.951 9 134.848 11.5975 133.238 15.2545C130.225 15.9356 128 18.3 128 21.1094C128 24.4546 131.146 27.1641 135.028 27.1641H136.438C136.592 27.1641 136.719 27.0551 136.719 26.9219V25.1055C136.719 24.9723 136.592 24.8633 136.438 24.8633H135.028C133.843 24.8633 132.729 24.4576 131.899 23.722C131.073 22.9894 130.633 22.0024 130.672 20.9792C130.704 20.18 131.02 19.4292 131.593 18.7965C132.18 18.1517 133.003 17.6824 133.917 17.4735L135.249 17.1738L135.738 16.0658C136.04 15.3756 136.462 14.7308 136.993 14.1465C137.517 13.5674 138.138 13.0583 138.835 12.6358C140.28 11.7609 141.982 11.2978 143.757 11.2978C145.532 11.2978 147.234 11.7609 148.679 12.6358C149.379 13.0597 149.997 13.5683 150.521 14.1465C151.052 14.7308 151.474 15.3786 151.776 16.0658L152.261 17.1708L153.59 17.4735C155.496 17.9155 156.828 19.408 156.828 21.1094C156.828 22.1114 156.375 23.056 155.552 23.7644C155.149 24.1138 154.669 24.3908 154.14 24.5795C153.611 24.7681 153.044 24.8646 152.472 24.8633H151.062C150.908 24.8633 150.781 24.9723 150.781 25.1055V26.9219C150.781 27.0551 150.908 27.1641 151.062 27.1641H152.472C156.354 27.1641 159.5 24.4546 159.5 21.1094C159.5 18.303 157.282 15.9417 154.276 15.2575Z" fill="#ADADAD"/>
</svg>
